<svg enable-background="new 0 0 261.271 51" height="51" viewBox="0 0 261.271 51" width="261.271" xmlns="http://www.w3.org/2000/svg" xmlns:xlink="http://www.w3.org/1999/xlink"><clipPath id="a"><path d="m0 0h47.669v47.668h-47.669z"/></clipPath><linearGradient id="b" gradientTransform="matrix(-74.9772 -129.8644 -129.8644 74.9772 13160.1191 -70504.1484)" gradientUnits="userSpaceOnUse" x1="-363.7344" x2="-363.2998" y1="311.0298" y2="311.0298"><stop offset="0" stop-color="#032a44"/><stop offset=".015" stop-color="#032c48"/><stop offset=".1771" stop-color="#02416a"/><stop offset=".3422" stop-color="#015185"/><stop offset=".5098" stop-color="#005d98"/><stop offset=".6811" stop-color="#0064a3"/><stop offset=".8621" stop-color="#0066a7"/><stop offset="1" stop-color="#0066a7"/></linearGradient><g fill="#112a41"><path d="m70.97 24.396c-1.723 0-1.794.072-1.794 1.148v5.061c0 3.769.179 4.271 2.189 4.486l1.041.108c.216.143.144.789-.071.897-1.938-.072-3.159-.108-4.559-.108-1.543 0-2.764.072-4.164.108-.215-.108-.287-.683-.072-.897l.61-.108c2.01-.358 2.082-.718 2.082-4.486v-12.921c0-3.769-.251-4.379-2.118-4.522l-.933-.072c-.215-.144-.144-.79.072-.897 1.759.036 2.979.107 4.522.107 1.4 0 2.62-.036 4.164-.107.215.107.287.754.072.897l-.682.072c-2.082.215-2.153.753-2.153 4.522v4.127c0 1.113.072 1.149 1.794 1.149h10.266c1.723 0 1.795-.036 1.795-1.149v-4.127c0-3.769-.072-4.307-2.19-4.522l-.682-.072c-.215-.144-.143-.79.072-.897 1.651.072 2.871.107 4.343.107 1.4 0 2.62-.036 4.235-.107.215.107.287.754.072.897l-.753.072c-2.082.215-2.154.753-2.154 4.522v12.921c0 3.769.072 4.235 2.154 4.486l.861.108c.215.143.144.789-.072.897-1.723-.072-2.943-.108-4.343-.108-1.472 0-2.764.036-4.343.108-.215-.108-.288-.683-.072-.897l.682-.108c2.19-.358 2.19-.718 2.19-4.486v-5.061c0-1.077-.072-1.148-1.795-1.148z"/><path d="m106.466 27.662c-.251-.79-.395-.897-1.472-.897h-5.42c-.897 0-1.112.107-1.364.861l-1.256 3.769c-.538 1.616-.79 2.584-.79 2.979 0 .431.179.646 1.041.718l1.185.108c.251.179.251.753-.071.897-.934-.072-2.046-.072-3.733-.108-1.184 0-2.477.072-3.446.108-.215-.145-.287-.719-.071-.897l1.184-.108c.862-.071 1.651-.466 2.154-1.758.646-1.652 1.651-3.985 3.159-8.005l3.661-9.691c.503-1.292.718-1.974.61-2.548.862-.251 1.472-.897 1.867-1.364.215 0 .466.071.538.323.467 1.58 1.041 3.23 1.58 4.81l4.917 14.429c1.041 3.086 1.507 3.625 3.051 3.804l.969.108c.251.179.18.753 0 .897-1.471-.072-2.728-.108-4.343-.108-1.723 0-3.087.072-4.128.108-.287-.145-.323-.719-.071-.897l1.041-.108c.754-.071 1.256-.287 1.256-.646 0-.396-.18-1.041-.467-1.903zm-7.107-3.195c-.287.826-.251.861.754.861h4.415c1.041 0 1.113-.144.79-1.112l-1.938-5.851c-.287-.862-.61-1.831-.825-2.262h-.072c-.107.18-.466 1.041-.861 2.118z"/><path d="m129.471 26.406c.825 1.687 1.615 3.338 2.477 4.917h.072c.969-1.687 1.866-3.554 2.764-5.384l3.374-6.855c1.615-3.267 2.656-5.241 2.728-6.892 1.221.107 1.974.107 2.692.107.896 0 2.081-.036 3.194-.107.215.144.215.754.036.897l-.754.072c-2.262.215-2.549.897-2.513 3.41.072 3.805.107 10.445.395 15.613.107 1.795.072 2.764 1.759 2.907l1.148.108c.216.215.18.753-.071.897-1.472-.072-2.943-.108-4.236-.108-1.256 0-2.871.036-4.343.108-.251-.18-.287-.683-.071-.897l1.041-.108c1.759-.179 1.759-.753 1.759-3.05l-.107-14.968h-.072c-.251.395-1.615 3.266-2.333 4.666l-3.194 6.282c-1.615 3.158-3.23 6.532-3.877 8.184-.071.107-.215.144-.358.144-.072 0-.251-.036-.323-.144-.61-1.902-2.333-5.42-3.158-7.179l-3.23-6.928c-.754-1.651-1.508-3.517-2.298-5.168h-.071c-.144 2.226-.251 4.307-.359 6.389-.107 2.189-.251 5.384-.251 8.435 0 2.656.216 3.23 1.615 3.338l1.364.108c.251.215.215.789-.036.897-1.221-.072-2.62-.108-3.984-.108-1.148 0-2.44.036-3.661.108-.215-.18-.287-.719-.071-.897l.789-.108c1.508-.215 2.011-.431 2.226-2.943.216-2.369.396-4.343.61-7.896.18-2.979.323-6.03.395-8.004.072-2.261-.215-2.799-2.404-3.086l-.574-.072c-.18-.215-.144-.754.144-.897 1.076.072 1.938.107 2.835.107.826 0 1.795 0 2.979-.107-.144 1.4.754 3.625 1.866 5.922z"/><path d="m154.126 17.755c0-3.805-.071-4.415-2.189-4.594l-.897-.072c-.215-.144-.144-.79.072-.897 1.794.072 3.015.107 4.522.107 1.436 0 2.656-.036 4.45-.107.216.107.287.754.072.897l-.897.072c-2.117.18-2.189.79-2.189 4.594v12.778c0 3.805.072 4.307 2.189 4.558l.897.108c.215.143.144.789-.072.897-1.794-.072-3.015-.108-4.45-.108-1.508 0-2.729.036-4.522.108-.216-.108-.287-.683-.072-.897l.897-.108c2.118-.251 2.189-.753 2.189-4.558z"/><path d="m167.514 17.684c0-3.769-.072-4.343-2.333-4.522l-.897-.072c-.215-.144-.144-.79.072-.897 2.009.072 3.229.107 4.666.107 1.399 0 2.62-.036 4.414-.107.216.107.287.754.072.897l-.861.072c-2.118.18-2.189.753-2.189 4.522v12.491c0 2.262.107 3.194.753 3.876.396.396 1.077.826 3.913.826 3.051 0 3.805-.144 4.379-.467.718-.431 1.65-1.723 2.368-3.554.216-.179.897-.036.897.216 0 .395-1.005 4.056-1.508 5.025-1.83-.072-5.239-.108-8.937-.108h-3.302c-1.508 0-2.657.036-4.666.108-.216-.108-.287-.683-.072-.897l1.077-.108c2.081-.215 2.153-.718 2.153-4.486v-12.922z"/><path d="m193.714 30.605c0 3.769.071 4.308 2.153 4.486l1.148.108c.216.143.144.789-.072.897-2.045-.072-3.266-.108-4.701-.108s-2.692.036-4.989.108c-.215-.108-.287-.719 0-.897l1.292-.108c2.046-.179 2.226-.718 2.226-4.486v-16.044c0-1.113 0-1.149-1.077-1.149h-1.974c-1.544 0-3.518.072-4.415.897-.861.79-1.221 1.579-1.615 2.477-.287.215-.79.036-.934-.251.575-1.615 1.113-3.913 1.364-5.348.108-.072.574-.108.682 0 .216 1.148 1.4 1.112 3.051 1.112h14.537c1.938 0 2.261-.071 2.8-1.005.18-.072.574-.036.646.108-.395 1.472-.646 4.379-.538 5.456-.144.287-.754.287-.934.072-.107-.897-.358-2.225-.896-2.62-.826-.61-2.189-.897-4.164-.897h-2.549c-1.076 0-1.04.036-1.04 1.221v15.971z"/><path d="m205.986 24.396c0-7.179 5.385-12.67 12.778-12.67 8.292 0 12.455 5.994 12.455 12.311 0 7.25-5.527 12.526-12.455 12.526-7.968 0-12.778-5.707-12.778-12.167zm21.645.753c0-5.922-2.621-12.312-9.477-12.312-3.732 0-8.578 2.549-8.578 10.409 0 5.312 2.584 12.204 9.655 12.204 4.308.001 8.4-3.23 8.4-10.301z"/><path d="m258.065 29.887c0 1.077 0 5.349.107 6.281-.072.215-.287.395-.682.395-.431-.61-1.472-1.866-4.595-5.419l-8.327-9.476c-.969-1.113-3.409-4.056-4.164-4.846h-.071c-.144.431-.18 1.256-.18 2.333v7.825c0 1.687.036 6.354.646 7.43.215.395.934.61 1.83.682l1.113.108c.215.287.18.718-.072.897-1.615-.072-2.871-.108-4.199-.108-1.508 0-2.477.036-3.732.108-.252-.18-.287-.683-.072-.897l.969-.108c.826-.107 1.4-.323 1.579-.718.503-1.292.468-5.671.468-7.394v-10.373c0-1.005-.036-1.759-.79-2.584-.503-.502-1.364-.754-2.226-.861l-.61-.072c-.215-.215-.215-.754.072-.897 1.507.107 3.409.107 4.056.107.574 0 1.185-.036 1.651-.107.718 1.831 4.953 6.568 6.138 7.896l3.482 3.911c2.477 2.764 4.235 4.774 5.923 6.497h.071c.144-.18.144-.754.144-1.508v-7.681c0-1.687-.036-6.353-.718-7.43-.216-.323-.79-.538-2.226-.718l-.61-.072c-.251-.215-.215-.79.072-.897 1.651.072 2.871.107 4.235.107 1.543 0 2.477-.036 3.697-.107.287.18.287.682.071.897l-.503.072c-1.148.18-1.866.467-2.01.753-.61 1.292-.538 5.743-.538 7.394v8.58z"/></g><path clip-rule="evenodd" d="m3.312 3.331h47.669v47.669h-47.669z" fill="#b9b8b8" fill-rule="evenodd"/><path clip-path="url(#a)" d="m11.917 68.309-32.558-56.392 56.392-32.558 32.559 56.392z" fill="url(#b)"/><path clip-rule="evenodd" d="m14.566 12.418v-2.646c.894-.798 2.062-1.112 3.412-1.1v-.868h-8.927v.934c1.124.085 2.082.429 2.853 1.034l.147 26.144c.008.96-.688 2.911-1.527 3.818-.833.899-2.413 1.027-3.047.594-1.279-.872-2.119-.922-2.644-.243-.49.62-.457 1.783.824 2.539 3.878 2.055 7.806-3.586 8.237-6.514.055-.427.531-.423.894-.198 3.175 1.849 6.62 1.645 10.25.074h4.487v-.702c-1.188-.071-2.103-.406-2.521-1.206v-9.01c3.314-.867 6.625-.857 9.937.015v8.965c-.713.799-1.7 1.21-2.959 1.236v.702h8.926v-.824c-1.071 0-2.056-.364-2.989-1.104l.025-20.003c.264-.786 1.28-1.126 2.938-1.104v-.683h-8.893v.838c1.438-.034 2.563.113 2.978.815l.004 8.237c-3.268.672-6.537.672-9.816 0v-8.022c.32-.782 1.218-1.051 2.382-1.078v-.796h-4.297c-3.666-2.087-7.254-2.219-10.674.156m10.204 11.785v-8.063c-.403-4.146-7.703-6.232-9.629-1.457-.24.88-.335 1.844.195 2.564.34.456.713.901 1.177 1.298 2.181 1.828 5.121 3.478 8.257 5.658m-9.825-1.068v8.073c.415 4.149 7.716 6.239 9.639 1.452.241-.878.33-1.845-.203-2.568-.333-.45-.709-.899-1.173-1.297-2.179-1.831-5.119-3.478-8.263-5.66" fill="#fff" fill-rule="evenodd"/></svg>